<?xml version="1.0" encoding="UTF-8" standalone="no"?>
<!-- Created with Inkscape (http://www.inkscape.org/) -->

<svg
   width="1024"
   height="1024"
   version="1.1"
   viewBox="0 0 1360 1360"
   id="svg51"
   sodipodi:docname="ari.svg"
   inkscape:version="1.2.2 (b0a8486541, 2022-12-01)"
   xmlns:inkscape="http://www.inkscape.org/namespaces/inkscape"
   xmlns:sodipodi="http://sodipodi.sourceforge.net/DTD/sodipodi-0.dtd"
   xmlns:xlink="http://www.w3.org/1999/xlink"
   xmlns="http://www.w3.org/2000/svg"
   xmlns:svg="http://www.w3.org/2000/svg">
  <defs
     id="defs34">
    <inkscape:path-effect
       effect="powerclip"
       id="path-effect320"
       is_visible="true"
       lpeversion="1"
       inverse="true"
       flatten="false"
       hide_clip="false"
       message="Use fill-rule evenodd on &lt;b&gt;fill and stroke&lt;/b&gt; dialog if no flatten result after convert clip to paths." />
    <linearGradient
       id="linearGradient1454"
       x1="973.18"
       x2="1048.9"
       y1="560.69"
       y2="499.17"
       gradientUnits="userSpaceOnUse">
      <stop
         stop-color="#10b9bf"
         offset="0"
         id="stop2" />
      <stop
         stop-color="#36529a"
         offset="1"
         id="stop4" />
    </linearGradient>
    <linearGradient
       id="linearGradient1750"
       x1="1010.6"
       x2="1364.3"
       y1="703.33"
       y2="1326.3"
       gradientUnits="userSpaceOnUse">
      <stop
         stop-color="#10b9bf"
         offset="0"
         id="stop7" />
      <stop
         stop-color="#169bc4"
         offset=".3"
         id="stop9" />
      <stop
         stop-color="#36529a"
         offset="1"
         id="stop11" />
    </linearGradient>
    <radialGradient
       id="radialGradient13619"
       cx="1045.5"
       cy="741.92"
       r="142.73"
       gradientTransform="matrix(0.37456,1.0837,-0.73119,0.24732,1197.3,-509.21)"
       gradientUnits="userSpaceOnUse">
      <stop
         stop-color="#36529a"
         stop-opacity=".6"
         offset="0"
         id="stop14" />
      <stop
         stop-color="#36529a"
         stop-opacity="0"
         offset="1"
         id="stop16" />
    </radialGradient>
    <linearGradient
       id="linearGradient14682"
       x1="1010.6"
       x2="1364.3"
       y1="703.33"
       y2="1326.3"
       gradientUnits="userSpaceOnUse">
      <stop
         stop-color="#10b9bf"
         offset="0"
         id="stop27" />
      <stop
         stop-color="#169bc4"
         offset=".4"
         id="stop29" />
      <stop
         stop-color="#36529a"
         offset="1"
         id="stop31" />
    </linearGradient>
    <clipPath
       clipPathUnits="userSpaceOnUse"
       id="clipPath316">
      <path
         d="m 765.48,72.387 c -17.565,0.21928 -34.513,2.6999 -50.008,5.4766 a 16.765,16.765 0 0 0 -1.8535,0.44141 c -16.436,4.9246 -34.423,8.3878 -51.816,19.301 -17.394,10.913 -32.234,29.672 -41.391,59.266 a 16.765,16.765 0 0 0 -0.38281,1.4707 c -0.44889,2.1118 -0.65161,3.6285 -0.79688,4.3984 a 16.765,16.765 0 0 0 -0.0898,0.52149 c -0.76447,4.8962 -1.7539,10.497 -0.46094,17.834 0.64648,3.6685 1.9972,8.1366 5.5918,12.371 1.1956,1.4085 2.7146,2.6172 4.334,3.7168 -6.7936,7.6084 -11.851,16.922 -14.48,27.357 a 16.765,16.765 0 0 0 -0.5039,3.8223 c -0.20049,12.292 -0.0741,23.8 0.47461,33.553 a 16.765,16.765 0 0 0 0.2539,2.1074 c 4.2578,23.018 13.573,49.385 27.734,78.455 5.6154,11.528 10.275,20.465 14.047,26.84 1.8858,3.1876 3.3582,5.6004 5.5898,8.2734 1.1158,1.3365 1.8736,2.8507 6.0859,5.1484 2.1062,1.1489 5.8417,2.8923 11.43,1.8809 2.3586,-0.4269 4.5324,-1.5918 6.4609,-2.9629 -5.6832,23.12 -10.749,46.653 -13.805,69.354 a 16.765,16.765 0 0 0 -0.0723,0.63672 c -1.2467,13.009 -1.899,26.069 -1.9062,39.775 -0.0126,23.601 2.2338,45.289 6.8457,65.711 a 16.765,16.765 0 0 0 0.0801,0.33398 c 1.9312,7.8034 4.0967,15.783 6.8418,23.896 a 16.765,16.765 0 0 0 0.0176,0.0488 c 0.51482,1.5063 1.1025,3.3036 1.8438,5.3164 1.518,4.2373 3.128,7.7435 4.2168,10.51 a 16.765,16.765 0 0 0 0.19336,0.47461 c 6.388,14.88 14.337,29.235 24,43.227 a 16.765,16.765 0 0 0 0.17187,0.24609 c 0.29481,0.41099 1.0062,1.5979 2.3887,3.4863 1.5818,2.204 3.1001,4.1163 4.2949,5.6973 a 16.765,16.765 0 0 0 0.0566,0.0742 c 6.7783,8.8641 14.132,17.884 22.443,26.684 l -0.0703,-0.0723 c 0.12067,0.1293 0.28994,0.31067 0.50782,0.54297 a 16.765,16.765 0 0 0 0.0684,0.0742 c 4.3399,4.5724 8.8713,9.0537 13.592,13.42 a 16.765,16.765 0 0 0 0.34766,0.3125 c -0.64325,-0.56247 -0.067,-0.033 0.61914,0.57422 1.0195,0.91353 1.7395,1.4979 1.5234,1.3027 a 16.765,16.765 0 0 0 0.46289,0.40235 c 16.362,13.727 33.908,25.764 54.107,37.09 10.942,6.1349 18.032,10.159 22.271,12.654 1.9519,1.149 3.1482,1.8958 3.8398,2.3438 -0.37789,-0.35094 -0.70162,-0.60326 -1.9062,-2.1816 a 16.765,16.765 0 0 0 0.002,0 c 0.96923,1.2699 1.483,1.7439 2.0098,2.2461 0.0383,0.0249 0.19096,0.11451 0.22461,0.13672 0.19222,0.12686 0.15659,0.21534 0.20507,0.34375 0.64832,0.55673 1.0875,0.78355 1.5137,1.0977 0.79513,0.58605 1.4461,1.009 2.1211,1.4316 1.35,0.84535 2.7452,1.6332 4.2734,2.416 -1.7552,-0.89907 2.3482,1.68 5.8359,4.5898 0.54864,0.45774 1.128,0.96275 1.9258,1.6504 a 16.765,16.765 0 0 0 0.15429,0.13086 c -0.6778,-0.57012 -0.60638,-0.4783 0.33594,0.27734 13.308,10.706 24.709,23.378 32.906,40.943 a 16.765,16.765 0 0 0 4.4707,5.7988 c 20.317,16.897 37.569,36.958 53.553,60.236 a 16.765,16.765 0 0 0 1.1328,1.4707 c 5.9568,6.8952 18.441,29.802 31.869,59.486 13.428,29.684 28.90197,66.885 45.62897,106.25999 33.454,78.757 71.511,165.93 110.86,222.54 a 16.765,16.765 0 0 0 0.4258,0.584 c 29.719,39.061 83.64,76.25 123.83,101.6 a 16.765,16.765 0 0 0 24.488,-20.449 c -16.624,-41.199 -27.441,-57.125 -45.119,-111.22 -58.59,-194.8 -93.395,-423.57999 -130.26,-588.76999 a 16.765,16.765 0 0 0 -0.3926,-1.4492 c -69.719,-218.31 -165.84997,-288.03 -226.06997,-308.17 3.0443,-3.1665 5.9156,-6.4186 8.5449,-9.7812 26.75,-34.21 31.094,-77.025 21.641,-115.96 -9.4537,-38.93 -32.114,-74.991 -61.752,-100.18 -26.494,-22.517 -58.278,-28.84 -87.553,-28.475 z m 0.42773,98.664 c 4.882,0.10445 6.838,1.2239 13.725,3.4863 a 16.765,16.765 0 0 0 0.61914,0.18945 c 1.3974,0.40008 2.7662,0.63479 4.1484,0.94141 4.9228,2.888 13.62,9.9936 17.535,14.709 0.80685,0.97174 6.133,9.3132 10.584,17.842 4.451,8.5288 8.8926,18.189 11.1,24.213 4.8526,13.245 3.0915,33.637 -3.7168,45.402 -9.8077,16.949 -19.933,25.205 -30.275,28.291 -1.1937,0.35614 -6.8781,0.48605 -12.225,-0.79492 7.5157,-2.7356 14.254,-6.9022 19.555,-12.77 9.5508,-10.572 13.167,-23.106 13.119,-36.824 -0.0179,-5.0817 -0.48892,-9.0669 -2.6816,-14.123 -1.0964,-2.5281 -0.88565,-6.9921 -10.793,-10.598 -3.5114,-1.2779 -8.5151,-0.82128 -12.5,0.58985 -2.054,-1.134 -3.5789,-1.4153 -5.0957,-1.875 -2.4076,-0.72971 -4.6455,-1.1807 -6.9297,-1.5039 -2.2842,-0.32318 -4.3975,-0.56196 -7.4023,-0.37109 -1.5024,0.0954 -3.1569,0.0956 -6.373,1.3691 -1.6081,0.63677 -3.7871,1.6128 -6.252,4.1719 -2.4649,2.5591 -4.8125,7.4176 -4.8125,11.916 0,-4.5658 0.92631,-5.5544 1.3184,-6.4707 0.39209,-0.9163 0.6344,-1.3199 0.80664,-1.6172 0.34447,-0.59454 0.42415,-0.67852 0.42773,-0.68359 0.007,-0.0102 -0.33376,0.45253 -0.80273,1.0371 -0.93795,1.1692 -2.4537,2.9597 -4.1016,4.8086 -4.1759,4.6853 -6.1191,6.4556 -9.9805,7.3711 1.6606,-7.258 2.1885,-14.609 1.043,-21.861 -2.0483,-12.968 -8.9242,-24.747 -18.742,-34.477 -1.3565,-1.3442 -2.7776,-2.6069 -4.2422,-3.8047 9.7987,-3.2722 17.689,-7.9687 24.361,-11.48 8.4295,-4.4367 14.511,-6.9039 20.988,-6.8125 a 16.765,16.765 0 0 0 1.4473,-0.043 c 2.5683,-0.18603 4.5211,-0.26333 6.1484,-0.22852 z m -59.059,20.316 -1.9746,0.54297 c 0.57171,-0.12023 1.0497,-0.32501 1.6094,-0.45704 0.11921,-0.039 0.24653,-0.0453 0.36523,-0.0859 z m -67.818,9.9785 c 0.0414,0.005 0.0778,5.9e-4 0.11914,0.006 0.0332,0.004 0.0684,0.0176 0.10156,0.0215 z m 88.156,68.955 c -0.70457,1.9232 0.002,-0.11267 0,0 z m 23.943,39.285 c -0.62712,0.21441 -0.83468,0.14852 -1.1074,0.0664 0.27048,-0.0247 0.79203,-0.0415 1.1074,-0.0664 z m -48.457,7.623 c -0.01,0.0357 -0.0196,0.0737 -0.0293,0.10938 l -1.5625,0.0684 c 0.55246,-0.0436 1.0483,-0.12611 1.5918,-0.17774 z m -2.8359,0.23438 c -1.7418,-0.005 -6.7772,0.46952 -6.3477,0.13867 2.1662,0.0261 4.2986,-0.004 6.3477,-0.13867 z"
         display="none"
         fill="#0fb8c0"
         xlink:href="#path560"
         id="path318"
         inkscape:label="Body Offset Clip" />
      <path
         id="lpe_path-effect320"
         class="powerclip"
         d="M 35,35 H 945 V 1325 H 35 Z m 730.48,37.387 c -17.565,0.21928 -34.513,2.6999 -50.008,5.4766 a 16.765,16.765 0 0 0 -1.8535,0.44141 c -16.436,4.9246 -34.423,8.3878 -51.816,19.301 -17.394,10.913 -32.234,29.672 -41.391,59.266 a 16.765,16.765 0 0 0 -0.38281,1.4707 c -0.44889,2.1118 -0.65161,3.6285 -0.79688,4.3984 a 16.765,16.765 0 0 0 -0.0898,0.52149 c -0.76447,4.8962 -1.7539,10.497 -0.46094,17.834 0.64648,3.6685 1.9972,8.1366 5.5918,12.371 1.1956,1.4085 2.7146,2.6172 4.334,3.7168 -6.7936,7.6084 -11.851,16.922 -14.48,27.357 a 16.765,16.765 0 0 0 -0.5039,3.8223 c -0.20049,12.292 -0.0741,23.8 0.47461,33.553 a 16.765,16.765 0 0 0 0.2539,2.1074 c 4.2578,23.018 13.573,49.385 27.734,78.455 5.6154,11.528 10.275,20.465 14.047,26.84 1.8858,3.1876 3.3582,5.6004 5.5898,8.2734 1.1158,1.3365 1.8736,2.8507 6.0859,5.1484 2.1062,1.1489 5.8417,2.8923 11.43,1.8809 2.3586,-0.4269 4.5324,-1.5918 6.4609,-2.9629 -5.6832,23.12 -10.749,46.653 -13.805,69.354 a 16.765,16.765 0 0 0 -0.0723,0.63672 c -1.2467,13.009 -1.899,26.069 -1.9062,39.775 -0.0126,23.601 2.2338,45.289 6.8457,65.711 a 16.765,16.765 0 0 0 0.0801,0.33398 c 1.9312,7.8034 4.0967,15.783 6.8418,23.896 a 16.765,16.765 0 0 0 0.0176,0.0488 c 0.51482,1.5063 1.1025,3.3036 1.8438,5.3164 1.518,4.2373 3.128,7.7435 4.2168,10.51 a 16.765,16.765 0 0 0 0.19336,0.47461 c 6.388,14.88 14.337,29.235 24,43.227 a 16.765,16.765 0 0 0 0.17187,0.24609 c 0.29481,0.41099 1.0062,1.5979 2.3887,3.4863 1.5818,2.204 3.1001,4.1163 4.2949,5.6973 a 16.765,16.765 0 0 0 0.0566,0.0742 c 6.7783,8.8641 14.132,17.884 22.443,26.684 l -0.0703,-0.0723 c 0.12067,0.1293 0.28994,0.31067 0.50782,0.54297 a 16.765,16.765 0 0 0 0.0684,0.0742 c 4.3399,4.5724 8.8713,9.0537 13.592,13.42 a 16.765,16.765 0 0 0 0.34766,0.3125 c -0.64325,-0.56247 -0.067,-0.033 0.61914,0.57422 1.0195,0.91353 1.7395,1.4979 1.5234,1.3027 a 16.765,16.765 0 0 0 0.46289,0.40235 c 16.362,13.727 33.908,25.764 54.107,37.09 10.942,6.1349 18.032,10.159 22.271,12.654 1.9519,1.149 3.1482,1.8958 3.8398,2.3438 -0.37789,-0.35094 -0.70162,-0.60326 -1.9062,-2.1816 a 16.765,16.765 0 0 0 0.002,0 c 0.96923,1.2699 1.483,1.7439 2.0098,2.2461 0.0383,0.0249 0.19096,0.11451 0.22461,0.13672 0.19222,0.12686 0.15659,0.21534 0.20507,0.34375 0.64832,0.55673 1.0875,0.78355 1.5137,1.0977 0.79513,0.58605 1.4461,1.009 2.1211,1.4316 1.35,0.84535 2.7452,1.6332 4.2734,2.416 -1.7552,-0.89907 2.3482,1.68 5.8359,4.5898 0.54864,0.45774 1.128,0.96275 1.9258,1.6504 a 16.765,16.765 0 0 0 0.15429,0.13086 c -0.6778,-0.57012 -0.60638,-0.4783 0.33594,0.27734 13.308,10.706 24.709,23.378 32.906,40.943 a 16.765,16.765 0 0 0 4.4707,5.7988 c 20.317,16.897 37.569,36.958 53.553,60.236 a 16.765,16.765 0 0 0 1.1328,1.4707 c 5.9568,6.8952 18.441,29.802 31.869,59.486 13.428,29.684 28.90197,66.885 45.62897,106.25999 33.454,78.757 71.511,165.93 110.86,222.54 a 16.765,16.765 0 0 0 0.4258,0.584 c 29.719,39.061 83.64,76.25 123.83,101.6 a 16.765,16.765 0 0 0 24.488,-20.449 c -16.624,-41.199 -27.441,-57.125 -45.119,-111.22 -58.59,-194.8 -93.395,-423.57999 -130.26,-588.76999 a 16.765,16.765 0 0 0 -0.3926,-1.4492 c -69.719,-218.31 -165.84997,-288.03 -226.06997,-308.17 3.0443,-3.1665 5.9156,-6.4186 8.5449,-9.7812 26.75,-34.21 31.094,-77.025 21.641,-115.96 -9.4537,-38.93 -32.114,-74.991 -61.752,-100.18 -26.494,-22.517 -58.278,-28.84 -87.553,-28.475 z m 0.42773,98.664 3.8e-4,-3.1e-4 c -1.6273,-0.0348 -3.5801,0.0425 -6.1484,0.22852 a 16.765,16.765 0 0 1 -1.4473,0.043 c -6.477,-0.0914 -12.5585,2.3758 -20.988,6.8125 -6.672,3.5113 -14.5623,8.2078 -24.361,11.48 1.4646,1.1978 2.8857,2.4605 4.2422,3.8047 9.8178,9.73 16.6937,21.509 18.742,34.477 1.1455,7.252 0.6176,14.603 -1.043,21.861 3.8614,-0.9155 5.8046,-2.6858 9.9805,-7.3711 1.6479,-1.8489 3.16365,-3.6394 4.1016,-4.8086 0.46897,-0.58457 0.80973,-1.0473 0.80273,-1.0371 -0.004,0.005 -0.0833,0.0891 -0.42773,0.68359 -0.17224,0.2973 -0.41455,0.7009 -0.80664,1.6172 -0.39209,0.9163 -1.3184,1.9049 -1.3184,6.4707 0,-4.4984 2.3476,-9.3569 4.8125,-11.916 2.4649,-2.5591 4.6439,-3.53513 6.252,-4.1719 3.2161,-1.2735 4.8706,-1.2737 6.373,-1.3691 3.0048,-0.19087 5.1181,0.0479 7.4023,0.37109 2.2842,0.3232 4.5221,0.77419 6.9297,1.5039 1.5168,0.4597 3.0417,0.741 5.0957,1.875 3.9849,-1.41113 8.9886,-1.86775 12.5,-0.58985 9.90735,3.6059 9.6966,8.0699 10.793,10.598 2.19268,5.0561 2.6637,9.0413 2.6816,14.123 0.048,13.718 -3.5682,26.252 -13.119,36.824 -5.301,5.8678 -12.0393,10.0344 -19.555,12.77 5.3469,1.28097 11.0313,1.15106 12.225,0.79492 10.342,-3.086 20.4673,-11.342 30.275,-28.291 6.8083,-11.765 8.5694,-32.157 3.7168,-45.402 -2.2074,-6.024 -6.649,-15.6842 -11.1,-24.213 -4.451,-8.5288 -9.77715,-16.87026 -10.584,-17.842 -3.915,-4.7154 -12.6122,-11.821 -17.535,-14.709 -1.3822,-0.30662 -2.751,-0.54133 -4.1484,-0.94141 a 16.765,16.765 0 0 1 -0.61914,-0.18945 c -6.887,-2.2624 -8.843,-3.38185 -13.725,-3.4863 z m -59.059,20.316 3e-5,3e-5 c -0.1187,0.0406 -0.24602,0.0469 -0.36523,0.0859 -0.5597,0.13203 -1.03769,0.33681 -1.6094,0.45704 z m -67.818,9.9785 0.2207,0.0275 c -0.0332,-0.004 -0.0684,-0.0175 -0.10156,-0.0215 -0.0413,-0.005 -0.0777,-10e-4 -0.11914,-0.006 z m 88.156,68.955 c 0.002,-0.11267 -0.70457,1.9232 0,0 z m 23.943,39.285 c -0.31537,0.0249 -0.83692,0.0417 -1.1074,0.0664 0.27272,0.0821 0.48028,0.14801 1.1074,-0.0664 z m -48.457,7.623 v 4e-5 c -0.5435,0.0516 -1.03934,0.13414 -1.5918,0.17774 l 1.5625,-0.0684 c 0.01,-0.0357 0.0193,-0.0737 0.0293,-0.10938 z m -2.8359,0.23438 c -2.0491,0.13467 -4.1815,0.16477 -6.3477,0.13867 -0.4295,0.33085 4.6059,-0.14367 6.3477,-0.13867 z" />
    </clipPath>
    <clipPath
       clipPathUnits="userSpaceOnUse"
       id="clipPath325">
      <path
         d="m 765.69,89.148 c -16.102,0.20102 -32.167,2.5102 -47.26,5.2148 -34.554,10.353 -65.36,13.669 -82.004,67.463 -0.26774,1.2596 -0.47198,2.7033 -0.7207,4.0215 -1.3431,8.6025 -1.8624,18.011 5.5039,18.877 17.431,2.2835 29.008,-24.086 34.881,-22.576 4.2921,-1.8577 10.061,18.581 25.336,13.357 20.506,-4.3123 35.363,-21.252 57.123,-20.945 12.455,-0.90211 17.572,1.1779 26.316,4.0508 1.9908,0.57 3.9421,1.0082 5.8574,1.3301 l 0.5039,0.26562 c 7.6645,4.0413 17.613,12.243 23.605,19.461 6.0842,7.3275 19.202,32.462 24.527,46.998 6.8212,18.619 4.8229,42.681 -4.9473,59.564 -11.196,19.347 -24.545,31.349 -39.992,35.957 -12.345,3.683 -33.746,-2.2497 -41.543,-11.516 -3.793,-4.5078 -9.3208,-16.005 -8.2226,-17.104 0.3775,-0.37749 5.454,-0.85458 11.281,-1.0606 12.938,-0.45732 22.146,-4.0615 28.582,-11.186 5.0687,-5.6105 8.8266,-16.518 8.7949,-25.527 -0.0214,-6.078 -2.2615,-11.244 -3.5254,-8.1289 -0.97323,2.3985 -9.8173,2.054 -12.631,-0.49219 -2.2685,-2.053 -13.156,-3.5935 -13.156,-1.8613 0,0.4516 -2.9703,4.1543 -6.6016,8.2285 -8.9885,10.085 -16.71,13.329 -33.732,14.172 -8.6106,0.42631 -13,0.17085 -13,-0.75781 0,-0.77113 1.4563,-4.3022 3.2344,-7.8457 10.147,-20.222 7.3209,-38.111 -8.4941,-53.783 -9.0601,-8.9783 -18.011,-12.585 -30.74,-12.389 -22.046,0.34077 -38.816,14 -44.283,35.699 -0.19571,11.999 -0.0635,23.19 0.45117,32.338 3.8704,20.923 12.652,46.099 26.322,74.162 11.005,22.591 18.283,34.881 19.373,32.76 1.0653,-5.0374 2.1042,-10.121 3.123,-15.209 4.0117,-22.687 6.3473,-34.056 8.8398,-41.842 l 3.1426,-9.8184 0.66015,-0.0293 c 0.0142,-0.0417 0.0229,-0.0872 0.0371,-0.12891 4.714,0.17802 9.6046,-0.30121 14.453,-0.98047 1.7927,-0.25697 3.2406,-0.50106 4.9726,-0.86328 4.8918,-1.0063 9.76,-2.246 14.252,-4.1992 -12.022,47.12 -30.462,106.12 -37.502,158.42 -1.1981,12.502 -1.8211,25.001 -1.8281,38.186 -0.012,22.536 2.1246,42.927 6.4336,62.008 1.8681,7.5485 3.9166,15.066 6.4492,22.551 0.57551,1.6839 1.1296,3.379 1.7461,5.0449 1.192,3.3353 2.7339,6.7187 4.0508,10.064 5.9434,13.845 13.327,27.193 22.389,40.314 0.81579,1.1373 1.4766,2.249 2.3125,3.3867 1.2678,1.7738 2.7414,3.6329 4.123,5.4609 6.5567,8.5744 13.54,17.127 21.312,25.355 0.15974,0.17117 0.31922,0.34382 0.47852,0.51367 4.0937,4.313 8.3675,8.5393 12.816,12.654 0.21324,0.18646 0.47797,0.4644 0.6875,0.64453 0.52979,0.48652 1.1213,0.92897 1.6562,1.4121 15.546,13.043 32.131,24.433 51.531,35.311 21.945,12.304 28.483,16.153 29.334,17.268 0.36667,0.48041 2.466,1.7949 4.666,2.9219 1.8499,0.94759 5.1529,3.486 8.9316,6.6387 0.71596,0.59734 1.3705,1.1671 2.1328,1.8242 0.0107,0.009 0.0207,0.0188 0.0312,0.0273 14.765,11.874 28.165,26.694 37.609,46.932 21.749,18.088 40.024,39.42 56.652,63.637 36.571,42.332 114.25996,281.52004 189.43996,389.69004 26.71,35.106 79.925,72.653 119.43,97.574 -16.247,-40.265 -27.528,-57.217 -45.57,-112.47 -59.138,-196.55 -93.979,-425.94004 -130.62,-590.14004 -86.084,-269.55 -209.21996,-302.7 -248.57996,-304.02 14.115,-8.4957 25.276,-18.433 33.82,-29.359 46.316,-59.232 15.754,-147.55 -37.762,-193.04 -22.711,-19.302 -49.651,-24.821 -76.488,-24.486 z"
         fill="url(#linearGradient14682)"
         xlink:href="#path560"
         id="path327"
         style="fill:url(#linearGradient329)"
         inkscape:label="Body Clip" />
    </clipPath>
    <linearGradient
       inkscape:collect="always"
       xlink:href="#linearGradient14682"
       id="linearGradient329"
       gradientUnits="userSpaceOnUse"
       x1="1010.6"
       y1="703.33"
       x2="1364.3"
       y2="1326.3" />
  </defs>
  <g
     id="g49"
     inkscape:label="Ari Logo">
    <path
       d="M 620,40 40,1320 H 200 L 404.45,840 H 940 L 800,700 H 466.67 L 760,40 Z"
       clip-path="url(#clipPath316)"
       fill="#0fb8c0"
       id="path36"
       inkscape:label="A"
       inkscape:path-effect="#path-effect320"
       inkscape:original-d="M 620,40 40,1320 H 200 L 404.45,840 H 940 L 800,700 H 466.67 L 760,40 Z" />
    <g
       id="g47"
       inkscape:label="Conure">
      <path
         id="path560"
         d="m 765.69,89.148 c -16.102,0.20102 -32.167,2.5102 -47.26,5.2148 -34.554,10.353 -65.36,13.669 -82.004,67.463 -0.26774,1.2596 -0.47198,2.7033 -0.7207,4.0215 -1.3431,8.6025 -1.8624,18.011 5.5039,18.877 17.431,2.2835 29.008,-24.086 34.881,-22.576 4.2921,-1.8577 10.061,18.581 25.336,13.357 20.506,-4.3123 35.363,-21.252 57.123,-20.945 12.455,-0.90211 17.572,1.1779 26.316,4.0508 1.9908,0.57 3.9421,1.0082 5.8574,1.3301 l 0.5039,0.26562 c 7.6645,4.0413 17.613,12.243 23.605,19.461 6.0842,7.3275 19.202,32.462 24.527,46.998 6.8212,18.619 4.8229,42.681 -4.9473,59.564 -11.196,19.347 -24.545,31.349 -39.992,35.957 -12.345,3.683 -33.746,-2.2497 -41.543,-11.516 -3.793,-4.5078 -9.3208,-16.005 -8.2226,-17.104 0.3775,-0.37749 5.454,-0.85458 11.281,-1.0606 12.938,-0.45732 22.146,-4.0615 28.582,-11.186 5.0687,-5.6105 8.8266,-16.518 8.7949,-25.527 -0.0214,-6.078 -2.2615,-11.244 -3.5254,-8.1289 -0.97323,2.3985 -9.8173,2.054 -12.631,-0.49219 -2.2685,-2.053 -13.156,-3.5935 -13.156,-1.8613 0,0.4516 -2.9703,4.1543 -6.6016,8.2285 -8.9885,10.085 -16.71,13.329 -33.732,14.172 -8.6106,0.42631 -13,0.17085 -13,-0.75781 0,-0.77113 1.4563,-4.3022 3.2344,-7.8457 10.147,-20.222 7.3209,-38.111 -8.4941,-53.783 -9.0601,-8.9783 -18.011,-12.585 -30.74,-12.389 -22.046,0.34077 -38.816,14 -44.283,35.699 -0.19571,11.999 -0.0635,23.19 0.45117,32.338 3.8704,20.923 12.652,46.099 26.322,74.162 11.005,22.591 18.283,34.881 19.373,32.76 1.0653,-5.0374 2.1042,-10.121 3.123,-15.209 4.0117,-22.687 6.3473,-34.056 8.8398,-41.842 l 3.1426,-9.8184 0.66015,-0.0293 c 0.0142,-0.0417 0.0229,-0.0872 0.0371,-0.12891 4.714,0.17802 9.6046,-0.30121 14.453,-0.98047 1.7927,-0.25697 3.2406,-0.50106 4.9726,-0.86328 4.8918,-1.0063 9.76,-2.246 14.252,-4.1992 -12.022,47.12 -30.462,106.12 -37.502,158.42 -1.1981,12.502 -1.8211,25.001 -1.8281,38.186 -0.012,22.536 2.1246,42.927 6.4336,62.008 1.8681,7.5485 3.9166,15.066 6.4492,22.551 0.57551,1.6839 1.1296,3.379 1.7461,5.0449 1.192,3.3353 2.7339,6.7187 4.0508,10.064 5.9434,13.845 13.327,27.193 22.389,40.314 0.81579,1.1373 1.4766,2.249 2.3125,3.3867 1.2678,1.7738 2.7414,3.6329 4.123,5.4609 6.5567,8.5744 13.54,17.127 21.312,25.355 0.15974,0.17117 0.31922,0.34382 0.47852,0.51367 4.0937,4.313 8.3675,8.5393 12.816,12.654 0.21324,0.18646 0.47797,0.4644 0.6875,0.64453 0.52979,0.48652 1.1213,0.92897 1.6562,1.4121 15.546,13.043 32.131,24.433 51.531,35.311 21.945,12.304 28.483,16.153 29.334,17.268 0.36667,0.48041 2.466,1.7949 4.666,2.9219 1.8499,0.94759 5.1529,3.486 8.9316,6.6387 0.71596,0.59734 1.3705,1.1671 2.1328,1.8242 0.0107,0.009 0.0206,0.0188 0.0312,0.0273 14.765,11.874 28.165,26.694 37.609,46.932 21.749,18.088 40.024,39.42 56.652,63.637 36.571,42.332 114.25996,281.52004 189.43996,389.69004 26.71,35.106 79.925,72.653 119.43,97.574 -16.247,-40.265 -27.528,-57.217 -45.57,-112.47 -59.138,-196.55 -93.979,-425.94004 -130.62,-590.14004 -86.084,-269.55 -209.21996,-302.7 -248.57996,-304.02 14.115,-8.4957 25.276,-18.433 33.82,-29.359 46.316,-59.232 15.754,-147.55 -37.762,-193.04 -22.711,-19.302 -49.651,-24.821 -76.488,-24.486 z"
         fill="url(#linearGradient1750)"
         inkscape:label="Body"
         style="fill:url(#linearGradient1750)" />
      <path
         d="m 905.84,793.65 c -0.82208,-0.53877 -3.4451,-4.8796 -5.8288,-9.6462 -5.3066,-10.611 -12.143,-20.265 -19.356,-27.333 -10.145,-9.9409 -19.971,-18.266 -23.987,-20.323 -2.2,-1.1269 -4.3,-2.442 -4.6667,-2.9225 -0.85049,-1.1144 -7.388,-4.9626 -29.333,-17.267 -19.835,-11.121 -36.748,-22.75 -52.594,-36.163 -11.501,-9.7345 -29.073,-29.644 -40.757,-46.178 -29.618,-41.913 -42.666,-85.486 -42.636,-142.38 0.0241,-45.386 6.397,-82.591 23.998,-140.1 1.571,-5.1333 4.2674,-14.733 5.9918,-21.333 1.7245,-6.6 4.3793,-16.746 5.8997,-22.547 1.5204,-5.8006 2.7643,-10.97 2.7643,-11.488 0,-0.518 -3.45,0.22149 -7.6667,1.6422 -4.2167,1.42071 -11.799,2.7711 -16.849,3.0008 l -9.1824,0.4176 -3.1437,9.8201 c -2.756,8.609 -5.0346,19.566 -9.9447,47.82 -0.70094,4.0333 -1.5761,8.1725 -1.9448,9.1981 -0.9248,2.5724 -8.2842,-9.8134 -19.446,-32.728 -15.476,-31.771 -25.086,-60.189 -27.892,-82.485 -1.3513,-10.736 -1.2595,-13.871 0.65824,-22.491 5.0325,-22.62 22.167,-36.874 44.745,-37.223 12.729,-0.19675 21.68,3.4108 30.74,12.389 15.815,15.672 18.64,33.561 8.4927,53.783 -1.7781,3.5436 -3.2329,7.0738 -3.2329,7.8449 0,0.92866 4.3894,1.1847 13,0.75843 17.023,-0.84279 24.743,-4.0861 33.731,-14.171 3.6313,-4.0742 6.6023,-7.7771 6.6023,-8.2287 0,-1.7322 10.889,-0.19233 13.157,1.8607 2.8136,2.5462 11.657,2.8912 12.63,0.49272 1.2639,-3.1148 3.5041,2.05 3.5255,8.1281 0.0317,9.0093 -3.7265,19.917 -8.7952,25.528 -6.4362,7.1241 -15.644,10.727 -28.582,11.185 -5.8272,0.20597 -10.904,0.68336 -11.281,1.0608 -1.0982,1.0982 4.4294,12.597 8.2225,17.105 7.7968,9.266 29.199,15.198 41.544,11.515 15.447,-4.6085 28.795,-16.61 39.991,-35.957 9.7702,-16.884 11.769,-40.946 4.9478,-59.564 -5.3255,-14.536 -18.443,-39.672 -24.527,-46.999 -5.9929,-7.2176 -15.941,-15.419 -23.606,-19.46 l -5.2266,-2.7558 10.667,-0.0392 c 22.273,-0.0819 42.738,8.1419 59.479,23.901 4.4724,4.2102 11.756,15.996 14.945,24.182 5.4776,14.062 6.8278,22.14 6.7699,40.505 -0.0892,28.337 -6.038,45.622 -23.816,69.198 -8.7997,11.67 -13.422,15.805 -32.044,28.671 -28.789,19.889 -52.596,47.021 -68.5,78.066 -11.126,21.719 -13.909,33.62 -13.887,59.399 0.0451,53.564 21.304,112.45 60.516,167.62 12.173,17.129 22.961,29.242 48.429,54.377 40.444,39.917 49.271,51.675 56.55,75.333 4.7605,15.473 4.8686,17.692 0.72986,14.98 z"
         fill="#2c3f5d"
         stroke-width="1.3333"
         id="path39"
         inkscape:label="Front" />
      <path
         d="m 1258.9,1334 c -75.431,-44.225 -122.41,-97.309 -158.15,-178.7 -4.8301,-11 -9.9894,-22.233 -11.465,-24.962 -3.423,-6.3308 -17.465,-38.262 -23.324,-53.038 -2.4716,-6.2333 -5.9978,-14.413 -7.8358,-18.176 -1.838,-3.7638 -5.4864,-12.464 -8.1074,-19.333 -2.5835,-8.0185 -9.28,-17.55 -6.2602,-18.49 3.3082,6.8786 14.944,21.721 21.053,32.562 8.6956,15.55 11.598,20.134 22.44,35.438 3.3767,4.7667 7.1678,10.167 8.4245,12 8.0845,11.794 26.987,29.754 29.096,27.645 1.5283,-1.5283 -6.8816,-22.889 -14.034,-35.645 -1.0394,-1.8537 -4.178,-8.0969 -19.607,-39.001 -3.2038,-6.4171 -5.8251,-11.998 -5.8251,-12.403 0,-0.4044 -2.3043,-5.354 -5.1207,-10.999 -5.5376,-11.099 -8.864,-20.057 -7.8316,-21.09 0.3558,-0.3557 4.1656,2.2403 8.4662,5.769 4.3007,3.5287 13.457,10.829 20.348,16.224 l 12.528,9.8082 -0.8976,-5.6135 c -0.4937,-3.0875 -0.2994,-9.007 0.4318,-13.154 0.7311,-4.1475 1.6602,-9.6409 2.0646,-12.208 1.4019,-8.8974 3.7705,-19.338 4.6101,-20.321 0.4641,-0.54347 1.61,5.7565 2.5464,14 0.9363,8.2435 2.5367,17.988 3.5562,21.655 1.0195,3.6666 3.7206,15.367 6.0024,26 2.2818,10.633 4.7063,21.133 5.3879,23.333 0.6815,2.2 2.8083,9.4 4.7261,16 16.594,53.557 48.106,125.26 72.466,148.89 14.018,11.215 13.818,7.4051 16.165,9.7765 1.1164,1.1281 3.1842,8.371 5.7411,15.338 10.073,27.445 21.176,51.502 32.767,71 1.6349,2.75 2.7633,4.9935 2.5075,4.9856 -0.2557,-0.013 -6.0474,-3.2873 -12.87,-7.2876 z"
         fill="#36529a"
         stroke-width="1.3333"
         id="path41"
         inkscape:label="Tail Tip" />
      <path
         d="m 887.48,596.96 c 150.83,-85.602 287.24,289.71 297.33,331.61 19.844,82.398 12.055,127.45 -59.26,103.8 C 994.32,988.843 973.75,943.569 915.34,862.85 859.349,785.481 803.27,644.75 887.48,596.96 Z"
         clip-path="url(#clipPath325)"
         fill="url(#radialGradient13619)"
         id="path43"
         inkscape:label="Wing Shadow"
         style="fill:url(#radialGradient13619)" />
      <path
         d="m 862.42,417.11 c 125.88,-50.206 237.98,274.86 240.65,309.23 5.2631,67.581 -59.004,90.483 -110.79,63.426 -95.284,-49.788 -105.58,-88.048 -140.6,-158.8 -33.562,-67.815 -59.551,-185.83 10.731,-213.86 z"
         fill="url(#linearGradient1454)"
         id="path45"
         inkscape:label="Wing"
         style="fill:url(#linearGradient1454)" />
    </g>
  </g>
</svg>
